<mxfile host="Electron" modified="2024-04-28T17:40:40.162Z" agent="Mozilla/5.0 (Windows NT 10.0; Win64; x64) AppleWebKit/537.36 (KHTML, like Gecko) draw.io/24.1.0 Chrome/120.0.6099.109 Electron/28.1.0 Safari/537.36" etag="uwBYDhRevGQUxgnxQefW" version="24.1.0" type="device">
  <diagram name="Page-1" id="lQq1lRdGTu987LEh8UeJ">
    <mxGraphModel dx="4320" dy="2580" grid="1" gridSize="10" guides="1" tooltips="1" connect="1" arrows="1" fold="1" page="1" pageScale="1" pageWidth="850" pageHeight="1100" math="0" shadow="0">
      <root>
        <mxCell id="0" />
        <mxCell id="1" parent="0" />
        <mxCell id="4W7v8GwF1WLgpCRjOkIm-2" style="edgeStyle=orthogonalEdgeStyle;rounded=0;orthogonalLoop=1;jettySize=auto;html=1;entryX=0.5;entryY=0;entryDx=0;entryDy=0;strokeWidth=7;" edge="1" parent="1" source="v4ZDc3-o21Q33p204Lgi-1" target="v4ZDc3-o21Q33p204Lgi-5">
          <mxGeometry relative="1" as="geometry" />
        </mxCell>
        <mxCell id="v4ZDc3-o21Q33p204Lgi-1" value="&lt;div style=&quot;background-color: rgb(255, 255, 255); padding: 0px 2px; font-size: 13px;&quot;&gt;&lt;div style=&quot;font-family: Consolas; font-size: 13px; white-space: pre;&quot;&gt;&lt;p style=&quot;margin: 0px; font-size: 13px;&quot;&gt;+---+---+---+---+---+---+---+---+&lt;/p&gt;&lt;p style=&quot;margin: 0px; font-size: 13px;&quot;&gt;| . | . | . | . | . | . | . | . | &lt;/p&gt;&lt;p style=&quot;margin: 0px; font-size: 13px;&quot;&gt;+---+---+---+---+---+---+---+---+&lt;/p&gt;&lt;p style=&quot;margin: 0px; font-size: 13px;&quot;&gt;| . | . | . | . | . | . | . | . | &lt;/p&gt;&lt;p style=&quot;margin: 0px; font-size: 13px;&quot;&gt;+---+---+---+---+---+---+---+---+&lt;/p&gt;&lt;p style=&quot;margin: 0px; font-size: 13px;&quot;&gt;| . | . | . | . | . | . | . | . | &lt;/p&gt;&lt;p style=&quot;margin: 0px; font-size: 13px;&quot;&gt;+---+---+---+---+---+---+---+---+&lt;/p&gt;&lt;p style=&quot;margin: 0px; font-size: 13px;&quot;&gt;| . | . | . | . | . | . | . | . | &lt;/p&gt;&lt;p style=&quot;margin: 0px; font-size: 13px;&quot;&gt;+---+---+---+---+---+---+---+---+&lt;/p&gt;&lt;p style=&quot;margin: 0px; font-size: 13px;&quot;&gt;| . | . | . | . | . | . | . | . | &lt;/p&gt;&lt;p style=&quot;margin: 0px; font-size: 13px;&quot;&gt;+---+---+---+---+---+---+---+---+&lt;/p&gt;&lt;p style=&quot;margin: 0px; font-size: 13px;&quot;&gt;| . | . | . | . | . | . | . | . | &lt;/p&gt;&lt;p style=&quot;margin: 0px; font-size: 13px;&quot;&gt;+---+---+---+---+---+---+---+---+&lt;/p&gt;&lt;p style=&quot;margin: 0px; font-size: 13px;&quot;&gt;| . | . | . | . | . | . | . | . | &lt;/p&gt;&lt;p style=&quot;margin: 0px; font-size: 13px;&quot;&gt;+---+---+---+---+---+---+---+---+&lt;/p&gt;&lt;p style=&quot;margin: 0px; font-size: 13px;&quot;&gt;| . | . | . | . | . | . | . | . | &lt;/p&gt;&lt;p style=&quot;margin: 0px; font-size: 13px;&quot;&gt;+---+---+---+---+---+---+---+---+&lt;/p&gt;&lt;/div&gt;&lt;/div&gt;" style="rounded=1;whiteSpace=wrap;html=1;fillColor=#ffcd28;strokeColor=#d79b00;fontStyle=1;align=center;fontSize=13;verticalAlign=middle;gradientColor=#ffa500;" parent="1" vertex="1">
          <mxGeometry x="330" y="260" width="300" height="300" as="geometry" />
        </mxCell>
        <mxCell id="4W7v8GwF1WLgpCRjOkIm-3" style="edgeStyle=orthogonalEdgeStyle;rounded=0;orthogonalLoop=1;jettySize=auto;html=1;entryX=0.433;entryY=-0.007;entryDx=0;entryDy=0;strokeColor=default;strokeWidth=7;align=center;verticalAlign=middle;fontFamily=Helvetica;fontSize=11;fontColor=default;labelBackgroundColor=default;endArrow=classic;entryPerimeter=0;" edge="1" parent="1" source="v4ZDc3-o21Q33p204Lgi-5" target="v4ZDc3-o21Q33p204Lgi-22">
          <mxGeometry relative="1" as="geometry">
            <Array as="points" />
          </mxGeometry>
        </mxCell>
        <mxCell id="v4ZDc3-o21Q33p204Lgi-5" value="&lt;div style=&quot;background-color:#ffffff;padding:0px 2px 0px 2px;&quot;&gt;&lt;div style=&quot;font-family: Consolas; font-size: 10pt; white-space: pre;&quot;&gt;&lt;p style=&quot;margin:0;&quot;&gt;+---+---+---+---+---+---+---+---+&lt;/p&gt;&lt;p style=&quot;margin:0;&quot;&gt;| Q | . | . | . | . | . | . | . | &lt;/p&gt;&lt;p style=&quot;margin:0;&quot;&gt;+---+---+---+---+---+---+---+---+&lt;/p&gt;&lt;p style=&quot;margin:0;&quot;&gt;| . | . | . | . | . | . | . | . | &lt;/p&gt;&lt;p style=&quot;margin:0;&quot;&gt;+---+---+---+---+---+---+---+---+&lt;/p&gt;&lt;p style=&quot;margin:0;&quot;&gt;| . | . | . | . | . | . | . | . | &lt;/p&gt;&lt;p style=&quot;margin:0;&quot;&gt;+---+---+---+---+---+---+---+---+&lt;/p&gt;&lt;p style=&quot;margin:0;&quot;&gt;| . | . | . | . | . | . | . | . | &lt;/p&gt;&lt;p style=&quot;margin:0;&quot;&gt;+---+---+---+---+---+---+---+---+&lt;/p&gt;&lt;p style=&quot;margin:0;&quot;&gt;| . | . | . | . | . | . | . | . | &lt;/p&gt;&lt;p style=&quot;margin:0;&quot;&gt;+---+---+---+---+---+---+---+---+&lt;/p&gt;&lt;p style=&quot;margin:0;&quot;&gt;| . | . | . | . | . | . | . | . | &lt;/p&gt;&lt;p style=&quot;margin:0;&quot;&gt;+---+---+---+---+---+---+---+---+&lt;/p&gt;&lt;p style=&quot;margin:0;&quot;&gt;| . | . | . | . | . | . | . | . | &lt;/p&gt;&lt;p style=&quot;margin:0;&quot;&gt;+---+---+---+---+---+---+---+---+&lt;/p&gt;&lt;p style=&quot;margin:0;&quot;&gt;| . | . | . | . | . | . | . | . | &lt;/p&gt;&lt;p style=&quot;margin:0;&quot;&gt;+---+---+---+---+---+---+---+---+&lt;/p&gt;&lt;/div&gt;&lt;/div&gt;" style="rounded=1;whiteSpace=wrap;html=1;fillColor=#d5e8d4;strokeColor=#82b366;gradientColor=#97d077;" parent="1" vertex="1">
          <mxGeometry x="330" y="760" width="300" height="300" as="geometry" />
        </mxCell>
        <mxCell id="4W7v8GwF1WLgpCRjOkIm-4" style="edgeStyle=orthogonalEdgeStyle;rounded=0;orthogonalLoop=1;jettySize=auto;html=1;strokeColor=default;strokeWidth=7;align=center;verticalAlign=middle;fontFamily=Helvetica;fontSize=11;fontColor=default;labelBackgroundColor=default;endArrow=classic;" edge="1" parent="1" source="v4ZDc3-o21Q33p204Lgi-22" target="v4ZDc3-o21Q33p204Lgi-35">
          <mxGeometry relative="1" as="geometry">
            <Array as="points">
              <mxPoint x="480" y="1630" />
              <mxPoint x="480" y="1630" />
            </Array>
          </mxGeometry>
        </mxCell>
        <mxCell id="v4ZDc3-o21Q33p204Lgi-22" value="&lt;div style=&quot;background-color:#ffffff;padding:0px 2px 0px 2px;&quot;&gt;&lt;div style=&quot;&quot;&gt;&lt;p style=&quot;margin: 0px;&quot;&gt;&lt;font face=&quot;Consolas&quot;&gt;&lt;span style=&quot;font-size: 13.3333px; white-space: pre;&quot;&gt;+---+---+---+---+---+---+---+---+&lt;br/&gt;| Q | . | . | . | . | . | . | . |&lt;br/&gt;+---+---+---+---+---+---+---+---+&lt;br/&gt;| . | . | . | . | Q | . | . | . |&lt;br/&gt;+---+---+---+---+---+---+---+---+&lt;br/&gt;| . | . | . | . | . | . | . | . |&lt;br/&gt;+---+---+---+---+---+---+---+---+&lt;br/&gt;| . | . | . | . | . | . | . | . |&lt;br/&gt;+---+---+---+---+---+---+---+---+&lt;br/&gt;| . | . | . | . | . | . | . | . |&lt;br/&gt;+---+---+---+---+---+---+---+---+&lt;br/&gt;| . | . | . | . | . | . | . | . |&lt;br/&gt;+---+---+---+---+---+---+---+---+&lt;br/&gt;| . | . | . | . | . | . | . | . |&lt;br/&gt;+---+---+---+---+---+---+---+---+&lt;br/&gt;| . | . | . | . | . | . | . | . |&lt;br/&gt;+---+---+---+---+---+---+---+---+&lt;br/&gt;&lt;/span&gt;&lt;/font&gt;&lt;/p&gt;&lt;div style=&quot;font-family: Consolas; font-size: 10pt; white-space: pre;&quot;&gt;&lt;br&gt;&lt;/div&gt;&lt;/div&gt;&lt;/div&gt;" style="rounded=1;whiteSpace=wrap;html=1;fillColor=#d5e8d4;strokeColor=#82b366;gradientColor=#97d077;" parent="1" vertex="1">
          <mxGeometry x="350" y="1230" width="300" height="300" as="geometry" />
        </mxCell>
        <mxCell id="4W7v8GwF1WLgpCRjOkIm-5" style="edgeStyle=orthogonalEdgeStyle;rounded=0;orthogonalLoop=1;jettySize=auto;html=1;strokeColor=default;strokeWidth=7;align=center;verticalAlign=middle;fontFamily=Helvetica;fontSize=11;fontColor=default;labelBackgroundColor=default;endArrow=classic;" edge="1" parent="1" source="v4ZDc3-o21Q33p204Lgi-35" target="v4ZDc3-o21Q33p204Lgi-76">
          <mxGeometry relative="1" as="geometry" />
        </mxCell>
        <mxCell id="v4ZDc3-o21Q33p204Lgi-35" value="&lt;div style=&quot;background-color:#ffffff;padding:0px 2px 0px 2px;&quot;&gt;&lt;div style=&quot;&quot;&gt;&lt;div style=&quot;padding: 0px 2px;&quot;&gt;&lt;div style=&quot;font-family: Consolas; font-size: 10pt; white-space: pre;&quot;&gt;&lt;p style=&quot;margin:0;&quot;&gt; +---+---+---+---+---+---+---+---+&lt;/p&gt;&lt;p style=&quot;margin:0;&quot;&gt;| Q | . | . | . | . | . | . | . |&lt;/p&gt;&lt;p style=&quot;margin:0;&quot;&gt;+---+---+---+---+---+---+---+---+&lt;/p&gt;&lt;p style=&quot;margin:0;&quot;&gt;| . | . | . | . | Q | . | . | . |&lt;/p&gt;&lt;p style=&quot;margin:0;&quot;&gt;+---+---+---+---+---+---+---+---+&lt;/p&gt;&lt;p style=&quot;margin:0;&quot;&gt;| . | . | . | . | . | . | . | Q |&lt;/p&gt;&lt;p style=&quot;margin:0;&quot;&gt;+---+---+---+---+---+---+---+---+&lt;/p&gt;&lt;p style=&quot;margin:0;&quot;&gt;| . | . | . | . | . | . | . | . |&lt;/p&gt;&lt;p style=&quot;margin:0;&quot;&gt;+---+---+---+---+---+---+---+---+&lt;/p&gt;&lt;p style=&quot;margin:0;&quot;&gt;| . | . | . | . | . | . | . | . |&lt;/p&gt;&lt;p style=&quot;margin:0;&quot;&gt;+---+---+---+---+---+---+---+---+&lt;/p&gt;&lt;p style=&quot;margin:0;&quot;&gt;| . | . | . | . | . | . | . | . |&lt;/p&gt;&lt;p style=&quot;margin:0;&quot;&gt;+---+---+---+---+---+---+---+---+&lt;/p&gt;&lt;p style=&quot;margin:0;&quot;&gt;| . | . | . | . | . | . | . | . |&lt;/p&gt;&lt;p style=&quot;margin:0;&quot;&gt;+---+---+---+---+---+---+---+---+&lt;/p&gt;&lt;p style=&quot;margin:0;&quot;&gt;| . | . | . | . | . | . | . | . |&lt;/p&gt;&lt;p style=&quot;margin:0;&quot;&gt;+---+---+---+---+---+---+---+---+&lt;/p&gt;&lt;/div&gt;&lt;/div&gt;&lt;/div&gt;&lt;/div&gt;" style="rounded=1;whiteSpace=wrap;html=1;fillColor=#d5e8d4;strokeColor=#82b366;gradientColor=#97d077;" parent="1" vertex="1">
          <mxGeometry x="360" y="1680" width="300" height="300" as="geometry" />
        </mxCell>
        <mxCell id="4W7v8GwF1WLgpCRjOkIm-8" style="edgeStyle=orthogonalEdgeStyle;rounded=0;orthogonalLoop=1;jettySize=auto;html=1;entryX=0.5;entryY=0;entryDx=0;entryDy=0;strokeColor=default;strokeWidth=7;align=center;verticalAlign=middle;fontFamily=Helvetica;fontSize=11;fontColor=default;labelBackgroundColor=default;endArrow=classic;" edge="1" parent="1" source="v4ZDc3-o21Q33p204Lgi-74" target="v4ZDc3-o21Q33p204Lgi-79">
          <mxGeometry relative="1" as="geometry" />
        </mxCell>
        <mxCell id="v4ZDc3-o21Q33p204Lgi-74" value="&lt;div style=&quot;background-color:#ffffff;padding:0px 2px 0px 2px;&quot;&gt;&lt;div style=&quot;&quot;&gt;&lt;div style=&quot;padding: 0px 2px;&quot;&gt;&lt;div style=&quot;font-family: Consolas; font-size: 10pt; white-space: pre;&quot;&gt;&lt;p style=&quot;margin:0;&quot;&gt;+---+---+---+---+---+---+---+---+&lt;/p&gt;&lt;p style=&quot;margin:0;&quot;&gt;| Q | . | . | . | . | . | . | . |&lt;/p&gt;&lt;p style=&quot;margin:0;&quot;&gt;+---+---+---+---+---+---+---+---+&lt;/p&gt;&lt;p style=&quot;margin:0;&quot;&gt;| . | . | . | . | Q | . | . | . |&lt;/p&gt;&lt;p style=&quot;margin:0;&quot;&gt;+---+---+---+---+---+---+---+---+&lt;/p&gt;&lt;p style=&quot;margin:0;&quot;&gt;| . | . | . | . | . | . | . | Q |&lt;/p&gt;&lt;p style=&quot;margin:0;&quot;&gt;+---+---+---+---+---+---+---+---+&lt;/p&gt;&lt;p style=&quot;margin:0;&quot;&gt;| . | . | . | . | . | Q | . | . |&lt;/p&gt;&lt;p style=&quot;margin:0;&quot;&gt;+---+---+---+---+---+---+---+---+&lt;/p&gt;&lt;p style=&quot;margin:0;&quot;&gt;| . | . | Q | . | . | . | . | . |&lt;/p&gt;&lt;p style=&quot;margin:0;&quot;&gt;+---+---+---+---+---+---+---+---+&lt;/p&gt;&lt;p style=&quot;margin:0;&quot;&gt;| . | . | . | . | . | . | Q | . |&lt;/p&gt;&lt;p style=&quot;margin:0;&quot;&gt;+---+---+---+---+---+---+---+---+&lt;/p&gt;&lt;p style=&quot;margin:0;&quot;&gt;| . | . | . | . | . | . | . | . |&lt;/p&gt;&lt;p style=&quot;margin:0;&quot;&gt;+---+---+---+---+---+---+---+---+&lt;/p&gt;&lt;p style=&quot;margin:0;&quot;&gt;| . | . | . | . | . | . | . | . |&lt;/p&gt;&lt;p style=&quot;margin:0;&quot;&gt;+---+---+---+---+---+---+---+---+&lt;/p&gt;&lt;/div&gt;&lt;/div&gt;&lt;/div&gt;&lt;/div&gt;" style="rounded=1;whiteSpace=wrap;html=1;fillColor=#d5e8d4;strokeColor=#82b366;gradientColor=#97d077;" parent="1" vertex="1">
          <mxGeometry x="360" y="3030" width="300" height="300" as="geometry" />
        </mxCell>
        <mxCell id="4W7v8GwF1WLgpCRjOkIm-7" style="edgeStyle=orthogonalEdgeStyle;rounded=0;orthogonalLoop=1;jettySize=auto;html=1;entryX=0.5;entryY=0;entryDx=0;entryDy=0;strokeColor=default;strokeWidth=7;align=center;verticalAlign=middle;fontFamily=Helvetica;fontSize=11;fontColor=default;labelBackgroundColor=default;endArrow=classic;" edge="1" parent="1" source="v4ZDc3-o21Q33p204Lgi-75" target="v4ZDc3-o21Q33p204Lgi-74">
          <mxGeometry relative="1" as="geometry" />
        </mxCell>
        <mxCell id="v4ZDc3-o21Q33p204Lgi-75" value="&lt;div style=&quot;background-color:#ffffff;padding:0px 2px 0px 2px;&quot;&gt;&lt;div style=&quot;&quot;&gt;&lt;div style=&quot;padding: 0px 2px;&quot;&gt;&lt;div style=&quot;font-family: Consolas; font-size: 10pt; white-space: pre;&quot;&gt;&lt;p style=&quot;margin:0;&quot;&gt;+---+---+---+---+---+---+---+---+&lt;/p&gt;&lt;p style=&quot;margin:0;&quot;&gt;| Q | . | . | . | . | . | . | . |&lt;/p&gt;&lt;p style=&quot;margin:0;&quot;&gt;+---+---+---+---+---+---+---+---+&lt;/p&gt;&lt;p style=&quot;margin:0;&quot;&gt;| . | . | . | . | Q | . | . | . |&lt;/p&gt;&lt;p style=&quot;margin:0;&quot;&gt;+---+---+---+---+---+---+---+---+&lt;/p&gt;&lt;p style=&quot;margin:0;&quot;&gt;| . | . | . | . | . | . | . | Q |&lt;/p&gt;&lt;p style=&quot;margin:0;&quot;&gt;+---+---+---+---+---+---+---+---+&lt;/p&gt;&lt;p style=&quot;margin:0;&quot;&gt;| . | . | . | . | . | Q | . | . |&lt;/p&gt;&lt;p style=&quot;margin:0;&quot;&gt;+---+---+---+---+---+---+---+---+&lt;/p&gt;&lt;p style=&quot;margin:0;&quot;&gt;| . | . | Q | . | . | . | . | . |&lt;/p&gt;&lt;p style=&quot;margin:0;&quot;&gt;+---+---+---+---+---+---+---+---+&lt;/p&gt;&lt;p style=&quot;margin:0;&quot;&gt;| . | . | . | . | . | . | . | . |&lt;/p&gt;&lt;p style=&quot;margin:0;&quot;&gt;+---+---+---+---+---+---+---+---+&lt;/p&gt;&lt;p style=&quot;margin:0;&quot;&gt;| . | . | . | . | . | . | . | . |&lt;/p&gt;&lt;p style=&quot;margin:0;&quot;&gt;+---+---+---+---+---+---+---+---+&lt;/p&gt;&lt;p style=&quot;margin:0;&quot;&gt;| . | . | . | . | . | . | . | . |&lt;/p&gt;&lt;p style=&quot;margin:0;&quot;&gt;+---+---+---+---+---+---+---+---+&lt;/p&gt;&lt;/div&gt;&lt;/div&gt;&lt;/div&gt;&lt;/div&gt;" style="rounded=1;whiteSpace=wrap;html=1;fillColor=#d5e8d4;strokeColor=#82b366;gradientColor=#97d077;" parent="1" vertex="1">
          <mxGeometry x="360" y="2580" width="300" height="300" as="geometry" />
        </mxCell>
        <mxCell id="4W7v8GwF1WLgpCRjOkIm-6" style="edgeStyle=orthogonalEdgeStyle;rounded=0;orthogonalLoop=1;jettySize=auto;html=1;strokeColor=default;strokeWidth=7;align=center;verticalAlign=middle;fontFamily=Helvetica;fontSize=11;fontColor=default;labelBackgroundColor=default;endArrow=classic;" edge="1" parent="1" source="v4ZDc3-o21Q33p204Lgi-76" target="v4ZDc3-o21Q33p204Lgi-75">
          <mxGeometry relative="1" as="geometry">
            <Array as="points">
              <mxPoint x="490" y="2540" />
              <mxPoint x="490" y="2540" />
            </Array>
          </mxGeometry>
        </mxCell>
        <mxCell id="v4ZDc3-o21Q33p204Lgi-76" value="&lt;div style=&quot;background-color:#ffffff;padding:0px 2px 0px 2px;&quot;&gt;&lt;div style=&quot;&quot;&gt;&lt;div style=&quot;padding: 0px 2px;&quot;&gt;&lt;div style=&quot;font-family: Consolas; font-size: 10pt; white-space: pre;&quot;&gt;&lt;p style=&quot;margin:0;&quot;&gt;+---+---+---+---+---+---+---+---+&lt;/p&gt;&lt;p style=&quot;margin:0;&quot;&gt;| Q | . | . | . | . | . | . | . |&lt;/p&gt;&lt;p style=&quot;margin:0;&quot;&gt;+---+---+---+---+---+---+---+---+&lt;/p&gt;&lt;p style=&quot;margin:0;&quot;&gt;| . | . | . | . | Q | . | . | . |&lt;/p&gt;&lt;p style=&quot;margin:0;&quot;&gt;+---+---+---+---+---+---+---+---+&lt;/p&gt;&lt;p style=&quot;margin:0;&quot;&gt;| . | . | . | . | . | . | . | Q |&lt;/p&gt;&lt;p style=&quot;margin:0;&quot;&gt;+---+---+---+---+---+---+---+---+&lt;/p&gt;&lt;p style=&quot;margin:0;&quot;&gt;| . | . | . | . | . | Q | . | . |&lt;/p&gt;&lt;p style=&quot;margin:0;&quot;&gt;+---+---+---+---+---+---+---+---+&lt;/p&gt;&lt;p style=&quot;margin:0;&quot;&gt;| . | . | . | . | . | . | . | . |&lt;/p&gt;&lt;p style=&quot;margin:0;&quot;&gt;+---+---+---+---+---+---+---+---+&lt;/p&gt;&lt;p style=&quot;margin:0;&quot;&gt;| . | . | . | . | . | . | . | . |&lt;/p&gt;&lt;p style=&quot;margin:0;&quot;&gt;+---+---+---+---+---+---+---+---+&lt;/p&gt;&lt;p style=&quot;margin:0;&quot;&gt;| . | . | . | . | . | . | . | . |&lt;/p&gt;&lt;p style=&quot;margin:0;&quot;&gt;+---+---+---+---+---+---+---+---+&lt;/p&gt;&lt;p style=&quot;margin:0;&quot;&gt;| . | . | . | . | . | . | . | . |&lt;/p&gt;&lt;p style=&quot;margin:0;&quot;&gt;+---+---+---+---+---+---+---+---+&lt;/p&gt;&lt;/div&gt;&lt;/div&gt;&lt;/div&gt;&lt;/div&gt;" style="rounded=1;whiteSpace=wrap;html=1;fillColor=#d5e8d4;strokeColor=#82b366;gradientColor=#97d077;" parent="1" vertex="1">
          <mxGeometry x="360" y="2130" width="300" height="300" as="geometry" />
        </mxCell>
        <mxCell id="4W7v8GwF1WLgpCRjOkIm-9" style="edgeStyle=orthogonalEdgeStyle;rounded=0;orthogonalLoop=1;jettySize=auto;html=1;entryX=0.5;entryY=0;entryDx=0;entryDy=0;strokeColor=default;strokeWidth=7;align=center;verticalAlign=middle;fontFamily=Helvetica;fontSize=11;fontColor=default;labelBackgroundColor=default;endArrow=classic;" edge="1" parent="1" source="v4ZDc3-o21Q33p204Lgi-79" target="v4ZDc3-o21Q33p204Lgi-80">
          <mxGeometry relative="1" as="geometry" />
        </mxCell>
        <mxCell id="v4ZDc3-o21Q33p204Lgi-79" value="&lt;div style=&quot;background-color:#ffffff;padding:0px 2px 0px 2px;&quot;&gt;&lt;div style=&quot;&quot;&gt;&lt;div style=&quot;padding: 0px 2px;&quot;&gt;&lt;div style=&quot;font-family: Consolas; font-size: 10pt; white-space: pre;&quot;&gt;&lt;p style=&quot;margin:0;&quot;&gt;+---+---+---+---+---+---+---+---+&lt;/p&gt;&lt;p style=&quot;margin:0;&quot;&gt;| Q | . | . | . | . | . | . | . |&lt;/p&gt;&lt;p style=&quot;margin:0;&quot;&gt;+---+---+---+---+---+---+---+---+&lt;/p&gt;&lt;p style=&quot;margin:0;&quot;&gt;| . | . | . | . | Q | . | . | . |&lt;/p&gt;&lt;p style=&quot;margin:0;&quot;&gt;+---+---+---+---+---+---+---+---+&lt;/p&gt;&lt;p style=&quot;margin:0;&quot;&gt;| . | . | . | . | . | . | . | Q |&lt;/p&gt;&lt;p style=&quot;margin:0;&quot;&gt;+---+---+---+---+---+---+---+---+&lt;/p&gt;&lt;p style=&quot;margin:0;&quot;&gt;| . | . | . | . | . | Q | . | . |&lt;/p&gt;&lt;p style=&quot;margin:0;&quot;&gt;+---+---+---+---+---+---+---+---+&lt;/p&gt;&lt;p style=&quot;margin:0;&quot;&gt;| . | . | Q | . | . | . | . | . |&lt;/p&gt;&lt;p style=&quot;margin:0;&quot;&gt;+---+---+---+---+---+---+---+---+&lt;/p&gt;&lt;p style=&quot;margin:0;&quot;&gt;| . | . | . | . | . | . | Q | . |&lt;/p&gt;&lt;p style=&quot;margin:0;&quot;&gt;+---+---+---+---+---+---+---+---+&lt;/p&gt;&lt;p style=&quot;margin:0;&quot;&gt;| . | Q | . | . | . | . | . | . |&lt;/p&gt;&lt;p style=&quot;margin:0;&quot;&gt;+---+---+---+---+---+---+---+---+&lt;/p&gt;&lt;p style=&quot;margin:0;&quot;&gt;| . | . | . | . | . | . | . | . |&lt;/p&gt;&lt;p style=&quot;margin:0;&quot;&gt;+---+---+---+---+---+---+---+---+&lt;/p&gt;&lt;/div&gt;&lt;/div&gt;&lt;/div&gt;&lt;/div&gt;" style="rounded=1;whiteSpace=wrap;html=1;fillColor=#d5e8d4;strokeColor=#82b366;gradientColor=#97d077;" parent="1" vertex="1">
          <mxGeometry x="360" y="3480" width="300" height="300" as="geometry" />
        </mxCell>
        <mxCell id="v4ZDc3-o21Q33p204Lgi-80" value="&lt;div style=&quot;background-color:#ffffff;padding:0px 2px 0px 2px;&quot;&gt;&lt;div style=&quot;&quot;&gt;&lt;div style=&quot;padding: 0px 2px;&quot;&gt;&lt;div style=&quot;font-family: Consolas; font-size: 10pt; white-space: pre;&quot;&gt;&lt;p style=&quot;margin:0;&quot;&gt;+---+---+---+---+---+---+---+---+&lt;/p&gt;&lt;p style=&quot;margin:0;&quot;&gt;| Q | . | . | . | . | . | . | . |&lt;/p&gt;&lt;p style=&quot;margin:0;&quot;&gt;+---+---+---+---+---+---+---+---+&lt;/p&gt;&lt;p style=&quot;margin:0;&quot;&gt;| . | . | . | . | Q | . | . | . |&lt;/p&gt;&lt;p style=&quot;margin:0;&quot;&gt;+---+---+---+---+---+---+---+---+&lt;/p&gt;&lt;p style=&quot;margin:0;&quot;&gt;| . | . | . | . | . | . | . | Q |&lt;/p&gt;&lt;p style=&quot;margin:0;&quot;&gt;+---+---+---+---+---+---+---+---+&lt;/p&gt;&lt;p style=&quot;margin:0;&quot;&gt;| . | . | . | . | . | Q | . | . |&lt;/p&gt;&lt;p style=&quot;margin:0;&quot;&gt;+---+---+---+---+---+---+---+---+&lt;/p&gt;&lt;p style=&quot;margin:0;&quot;&gt;| . | . | Q | . | . | . | . | . |&lt;/p&gt;&lt;p style=&quot;margin:0;&quot;&gt;+---+---+---+---+---+---+---+---+&lt;/p&gt;&lt;p style=&quot;margin:0;&quot;&gt;| . | . | . | . | . | . | Q | . |&lt;/p&gt;&lt;p style=&quot;margin:0;&quot;&gt;+---+---+---+---+---+---+---+---+&lt;/p&gt;&lt;p style=&quot;margin:0;&quot;&gt;| . | Q | . | . | . | . | . | . |&lt;/p&gt;&lt;p style=&quot;margin:0;&quot;&gt;+---+---+---+---+---+---+---+---+&lt;/p&gt;&lt;p style=&quot;margin:0;&quot;&gt;| . | . | . | Q | . | . | . | . |&lt;/p&gt;&lt;p style=&quot;margin:0;&quot;&gt;+---+---+---+---+---+---+---+---+&lt;/p&gt;&lt;/div&gt;&lt;/div&gt;&lt;/div&gt;&lt;/div&gt;" style="rounded=1;whiteSpace=wrap;html=1;fillColor=#ffcd28;strokeColor=#d79b00;gradientColor=#ffa500;" parent="1" vertex="1">
          <mxGeometry x="360" y="3960" width="300" height="300" as="geometry" />
        </mxCell>
      </root>
    </mxGraphModel>
  </diagram>
</mxfile>
